<svg xmlns="http://www.w3.org/2000/svg" xmlns:rdkit="http://www.rdkit.org/xml" xmlns:xlink="http://www.w3.org/1999/xlink" version="1.1" baseProfile="full" xml:space="preserve" width="300px" height="300px" viewBox="0 0 300 300">
<!-- END OF HEADER -->
<path class="bond-0 atom-0 atom-2" d="M 100.5,178.5 L 150.0,207.1 L 150.0,223.2 L 86.5,186.6 Z" style="fill:#FF0099;fill-rule:evenodd;fill-opacity:1;stroke:#FF0099;stroke-width:0.0px;stroke-linecap:butt;stroke-linejoin:miter;stroke-miterlimit:10;stroke-opacity:1;"/>
<path class="bond-1 atom-0 atom-4" d="M 199.5,178.5 L 213.4,186.6 L 150.0,223.2 L 150.0,207.1 Z" style="fill:#FF0099;fill-rule:evenodd;fill-opacity:1;stroke:#FF0099;stroke-width:0.0px;stroke-linecap:butt;stroke-linejoin:miter;stroke-miterlimit:10;stroke-opacity:1;"/>
<path class="bond-2 atom-1 atom-3" d="M 150.0,76.7 L 150.0,92.8 L 100.5,121.3 L 86.5,113.3 Z" style="fill:#FF0099;fill-rule:evenodd;fill-opacity:1;stroke:#FF0099;stroke-width:0.0px;stroke-linecap:butt;stroke-linejoin:miter;stroke-miterlimit:10;stroke-opacity:1;"/>
<path class="bond-3 atom-1 atom-5" d="M 150.0,76.7 L 213.4,113.3 L 199.5,121.3 L 150.0,92.8 Z" style="fill:#FF0099;fill-rule:evenodd;fill-opacity:1;stroke:#FF0099;stroke-width:0.0px;stroke-linecap:butt;stroke-linejoin:miter;stroke-miterlimit:10;stroke-opacity:1;"/>
<path class="bond-4 atom-2 atom-3" d="M 86.5,113.3 L 100.5,121.3 L 100.5,178.5 L 86.5,186.6 Z" style="fill:#FF0099;fill-rule:evenodd;fill-opacity:1;stroke:#FF0099;stroke-width:0.0px;stroke-linecap:butt;stroke-linejoin:miter;stroke-miterlimit:10;stroke-opacity:1;"/>
<path class="bond-7 atom-4 atom-5" d="M 213.4,113.3 L 213.4,186.6 L 199.5,178.5 L 199.5,121.3 Z" style="fill:#FF0099;fill-rule:evenodd;fill-opacity:1;stroke:#FF0099;stroke-width:0.0px;stroke-linecap:butt;stroke-linejoin:miter;stroke-miterlimit:10;stroke-opacity:1;"/>
<ellipse cx="150.0" cy="215.1" rx="13.0" ry="13.1" class="atom-0" style="fill:#FF0099;fill-rule:evenodd;stroke:#FF0099;stroke-width:1.0px;stroke-linecap:butt;stroke-linejoin:miter;stroke-opacity:1"/>
<ellipse cx="150.0" cy="84.7" rx="13.0" ry="13.1" class="atom-1" style="fill:#FF0099;fill-rule:evenodd;stroke:#FF0099;stroke-width:1.0px;stroke-linecap:butt;stroke-linejoin:miter;stroke-opacity:1"/>
<ellipse cx="93.5" cy="182.5" rx="13.0" ry="13.0" class="atom-2" style="fill:#FF0099;fill-rule:evenodd;stroke:#FF0099;stroke-width:1.0px;stroke-linecap:butt;stroke-linejoin:miter;stroke-opacity:1"/>
<ellipse cx="93.5" cy="117.3" rx="13.0" ry="13.0" class="atom-3" style="fill:#FF0099;fill-rule:evenodd;stroke:#FF0099;stroke-width:1.0px;stroke-linecap:butt;stroke-linejoin:miter;stroke-opacity:1"/>
<ellipse cx="206.4" cy="182.5" rx="13.0" ry="13.0" class="atom-4" style="fill:#FF0099;fill-rule:evenodd;stroke:#FF0099;stroke-width:1.0px;stroke-linecap:butt;stroke-linejoin:miter;stroke-opacity:1"/>
<ellipse cx="206.4" cy="117.3" rx="13.0" ry="13.0" class="atom-5" style="fill:#FF0099;fill-rule:evenodd;stroke:#FF0099;stroke-width:1.0px;stroke-linecap:butt;stroke-linejoin:miter;stroke-opacity:1"/>
<path class="bond-0 atom-0 atom-2" d="M 140.8,209.9 L 93.5,182.5" style="fill:none;fill-rule:evenodd;stroke:#000000;stroke-width:2.0px;stroke-linecap:butt;stroke-linejoin:miter;stroke-opacity:1"/>
<path class="bond-0 atom-0 atom-2" d="M 145.7,201.4 L 103.3,176.9" style="fill:none;fill-rule:evenodd;stroke:#000000;stroke-width:2.0px;stroke-linecap:butt;stroke-linejoin:miter;stroke-opacity:1"/>
<path class="bond-1 atom-0 atom-4" d="M 159.1,209.9 L 206.4,182.5" style="fill:none;fill-rule:evenodd;stroke:#000000;stroke-width:2.0px;stroke-linecap:butt;stroke-linejoin:miter;stroke-opacity:1"/>
<path class="bond-2 atom-1 atom-3" d="M 140.8,90.0 L 93.5,117.3" style="fill:none;fill-rule:evenodd;stroke:#000000;stroke-width:2.0px;stroke-linecap:butt;stroke-linejoin:miter;stroke-opacity:1"/>
<path class="bond-2 atom-1 atom-3" d="M 145.7,98.5 L 103.3,123.0" style="fill:none;fill-rule:evenodd;stroke:#000000;stroke-width:2.0px;stroke-linecap:butt;stroke-linejoin:miter;stroke-opacity:1"/>
<path class="bond-3 atom-1 atom-5" d="M 159.1,90.0 L 206.4,117.3" style="fill:none;fill-rule:evenodd;stroke:#000000;stroke-width:2.0px;stroke-linecap:butt;stroke-linejoin:miter;stroke-opacity:1"/>
<path class="bond-4 atom-2 atom-3" d="M 93.5,182.5 L 93.5,117.3" style="fill:none;fill-rule:evenodd;stroke:#000000;stroke-width:2.0px;stroke-linecap:butt;stroke-linejoin:miter;stroke-opacity:1"/>
<path class="bond-5 atom-2 atom-6" d="M 93.5,182.5 L 46.4,209.7" style="fill:none;fill-rule:evenodd;stroke:#000000;stroke-width:2.0px;stroke-linecap:butt;stroke-linejoin:miter;stroke-opacity:1"/>
<path class="bond-6 atom-3 atom-7" d="M 93.5,117.3 L 46.4,90.1" style="fill:none;fill-rule:evenodd;stroke:#000000;stroke-width:2.0px;stroke-linecap:butt;stroke-linejoin:miter;stroke-opacity:1"/>
<path class="bond-7 atom-4 atom-5" d="M 206.4,182.5 L 206.4,117.3" style="fill:none;fill-rule:evenodd;stroke:#000000;stroke-width:2.0px;stroke-linecap:butt;stroke-linejoin:miter;stroke-opacity:1"/>
<path class="bond-7 atom-4 atom-5" d="M 196.7,176.9 L 196.7,123.0" style="fill:none;fill-rule:evenodd;stroke:#000000;stroke-width:2.0px;stroke-linecap:butt;stroke-linejoin:miter;stroke-opacity:1"/>
<path class="bond-8 atom-4 atom-8" d="M 206.4,182.5 L 253.5,209.7" style="fill:none;fill-rule:evenodd;stroke:#000000;stroke-width:2.0px;stroke-linecap:butt;stroke-linejoin:miter;stroke-opacity:1"/>
<path class="bond-9 atom-5 atom-9" d="M 206.4,117.3 L 253.5,90.1" style="fill:none;fill-rule:evenodd;stroke:#000000;stroke-width:2.0px;stroke-linecap:butt;stroke-linejoin:miter;stroke-opacity:1"/>
<path class="atom-0" d="M 145.9 205.9 L 151.9 215.7 Q 152.5 216.7, 153.5 218.4 Q 154.5 220.2, 154.5 220.3 L 154.5 205.9 L 157.0 205.9 L 157.0 224.4 L 154.4 224.4 L 147.9 213.7 Q 147.2 212.4, 146.4 211.0 Q 145.6 209.6, 145.4 209.1 L 145.4 224.4 L 143.0 224.4 L 143.0 205.9 L 145.9 205.9 " fill="#000000"/>
<path class="atom-1" d="M 145.9 75.5 L 151.9 85.3 Q 152.5 86.2, 153.5 88.0 Q 154.5 89.7, 154.5 89.8 L 154.5 75.5 L 157.0 75.5 L 157.0 94.0 L 154.4 94.0 L 147.9 83.3 Q 147.2 82.0, 146.4 80.6 Q 145.6 79.1, 145.4 78.7 L 145.4 94.0 L 143.0 94.0 L 143.0 75.5 L 145.9 75.5 " fill="#000000"/>
<path class="atom-6" d="M 29.8 205.9 L 32.3 205.9 L 32.3 213.8 L 41.7 213.8 L 41.7 205.9 L 44.3 205.9 L 44.3 224.4 L 41.7 224.4 L 41.7 215.8 L 32.3 215.8 L 32.3 224.4 L 29.8 224.4 L 29.8 205.9 " fill="#000000"/>
<path class="atom-7" d="M 29.8 75.5 L 32.3 75.5 L 32.3 83.3 L 41.7 83.3 L 41.7 75.5 L 44.3 75.5 L 44.3 94.0 L 41.7 94.0 L 41.7 85.4 L 32.3 85.4 L 32.3 94.0 L 29.8 94.0 L 29.8 75.5 " fill="#000000"/>
<path class="atom-8" d="M 255.7 205.9 L 258.2 205.9 L 258.2 213.8 L 267.6 213.8 L 267.6 205.9 L 270.1 205.9 L 270.1 224.4 L 267.6 224.4 L 267.6 215.8 L 258.2 215.8 L 258.2 224.4 L 255.7 224.4 L 255.7 205.9 " fill="#000000"/>
<path class="atom-9" d="M 255.7 75.5 L 258.2 75.5 L 258.2 83.3 L 267.6 83.3 L 267.6 75.5 L 270.1 75.5 L 270.1 94.0 L 267.6 94.0 L 267.6 85.4 L 258.2 85.4 L 258.2 94.0 L 255.7 94.0 L 255.7 75.5 " fill="#000000"/>
<path class="note" d="M 150.0 241.7 Q 148.3 241.7, 147.4 240.4 Q 146.6 239.1, 146.6 236.9 Q 146.6 234.7, 147.4 233.4 Q 148.3 232.2, 150.0 232.2 Q 151.7 232.2, 152.5 233.4 Q 153.3 234.7, 153.3 236.9 Q 153.3 239.1, 152.5 240.4 Q 151.7 241.7, 150.0 241.7 M 150.0 240.6 Q 151.0 240.6, 151.5 239.7 Q 152.0 238.7, 152.0 236.9 Q 152.0 235.1, 151.5 234.2 Q 151.0 233.3, 150.0 233.3 Q 149.0 233.3, 148.4 234.2 Q 147.9 235.1, 147.9 236.9 Q 147.9 238.7, 148.4 239.7 Q 149.0 240.6, 150.0 240.6 " fill="#000000"/>
<path class="note" d="M 147.7 66.6 L 149.7 66.6 L 149.7 59.7 L 147.5 60.4 L 147.2 59.6 L 150.0 58.3 L 150.9 58.5 L 150.9 66.6 L 152.8 66.6 L 152.8 67.6 L 147.7 67.6 L 147.7 66.6 " fill="#000000"/>
<path class="note" d="M 90.4 190.6 Q 90.8 189.7, 91.6 189.2 Q 92.4 188.7, 93.5 188.7 Q 94.9 188.7, 95.7 189.5 Q 96.5 190.3, 96.5 191.6 Q 96.5 193.0, 95.4 194.2 Q 94.4 195.5, 92.3 197.0 L 96.6 197.0 L 96.6 198.1 L 90.4 198.1 L 90.4 197.2 Q 92.1 196.0, 93.1 195.1 Q 94.2 194.2, 94.7 193.3 Q 95.1 192.5, 95.1 191.7 Q 95.1 190.8, 94.7 190.3 Q 94.3 189.8, 93.5 189.8 Q 92.7 189.8, 92.3 190.1 Q 91.8 190.4, 91.4 191.0 L 90.4 190.6 " fill="#000000"/>
<path class="note" d="M 89.4 126.5 Q 90.3 126.8, 90.7 127.4 Q 91.2 128.0, 91.2 128.9 Q 91.2 129.7, 90.8 130.3 Q 90.4 130.9, 89.7 131.2 Q 89.0 131.5, 88.0 131.5 Q 87.0 131.5, 86.3 131.2 Q 85.5 130.9, 85.0 130.1 L 85.7 129.4 Q 86.3 130.0, 86.8 130.3 Q 87.2 130.5, 88.0 130.5 Q 88.8 130.5, 89.4 130.1 Q 89.9 129.6, 89.9 128.9 Q 89.9 127.9, 89.3 127.5 Q 88.8 127.1, 87.7 127.1 L 87.0 127.1 L 87.0 126.1 L 87.6 126.1 Q 88.6 126.1, 89.1 125.7 Q 89.7 125.3, 89.7 124.4 Q 89.7 123.8, 89.2 123.5 Q 88.8 123.1, 88.0 123.1 Q 87.3 123.1, 86.8 123.4 Q 86.3 123.7, 85.9 124.4 L 85.0 123.9 Q 85.4 123.1, 86.1 122.6 Q 86.9 122.1, 88.0 122.1 Q 89.4 122.1, 90.2 122.7 Q 91.0 123.4, 91.0 124.4 Q 91.0 125.2, 90.6 125.7 Q 90.2 126.2, 89.4 126.5 " fill="#000000"/>
<path class="note" d="M 214.3 174.6 L 215.4 174.6 L 215.4 175.6 L 214.3 175.6 L 214.3 177.7 L 213.1 177.7 L 213.1 175.6 L 208.3 175.6 L 208.3 174.8 L 212.4 168.5 L 214.3 168.5 L 214.3 174.6 M 209.8 174.6 L 213.1 174.6 L 213.1 169.3 L 209.8 174.6 " fill="#000000"/>
<path class="note" d="M 206.7 105.3 Q 207.5 105.3, 208.1 105.7 Q 208.8 106.0, 209.2 106.6 Q 209.6 107.3, 209.6 108.2 Q 209.6 109.1, 209.1 109.8 Q 208.6 110.5, 207.9 110.8 Q 207.1 111.2, 206.3 111.2 Q 205.4 111.2, 204.6 110.9 Q 203.9 110.6, 203.3 110.0 L 204.1 109.1 Q 204.5 109.6, 205.1 109.9 Q 205.7 110.1, 206.3 110.1 Q 207.1 110.1, 207.7 109.6 Q 208.3 109.1, 208.3 108.2 Q 208.3 107.2, 207.7 106.7 Q 207.1 106.3, 206.2 106.3 Q 205.4 106.3, 204.5 106.6 L 203.8 106.3 L 204.2 101.8 L 209.0 101.8 L 208.9 102.9 L 205.3 102.9 L 205.0 105.6 Q 205.9 105.3, 206.7 105.3 " fill="#000000"/>
<path class="note" d="M 18.6 224.9 Q 19.4 224.9, 20.1 225.3 Q 20.7 225.6, 21.1 226.3 Q 21.4 226.9, 21.4 227.7 Q 21.4 228.6, 21.0 229.3 Q 20.6 230.0, 19.9 230.4 Q 19.2 230.8, 18.3 230.8 Q 16.7 230.8, 15.8 229.7 Q 15.0 228.6, 15.0 226.3 Q 15.0 223.9, 16.0 222.6 Q 17.0 221.3, 19.0 221.3 Q 19.6 221.3, 20.1 221.5 Q 20.6 221.6, 21.0 221.9 L 20.5 222.8 Q 19.9 222.4, 19.0 222.4 Q 17.7 222.4, 17.1 223.2 Q 16.4 224.1, 16.3 225.8 Q 16.8 225.4, 17.4 225.2 Q 18.0 224.9, 18.6 224.9 M 18.3 229.7 Q 18.8 229.7, 19.2 229.5 Q 19.6 229.2, 19.9 228.7 Q 20.1 228.3, 20.1 227.7 Q 20.1 226.9, 19.6 226.4 Q 19.2 226.0, 18.4 226.0 Q 17.8 226.0, 17.3 226.2 Q 16.7 226.4, 16.3 226.8 Q 16.4 228.3, 16.9 229.0 Q 17.3 229.7, 18.3 229.7 " fill="#000000"/>
<path class="note" d="M 20.0 70.3 L 15.1 70.3 L 15.1 69.2 L 21.3 69.2 L 21.3 70.2 L 17.5 78.5 L 16.3 78.5 L 20.0 70.3 " fill="#000000"/>
<path class="note" d="M 283.2 225.8 Q 284.0 226.2, 284.5 226.7 Q 285.0 227.2, 285.0 228.2 Q 285.0 228.9, 284.6 229.5 Q 284.2 230.1, 283.5 230.5 Q 282.7 230.8, 281.8 230.8 Q 280.3 230.8, 279.4 230.1 Q 278.5 229.4, 278.5 228.2 Q 278.5 227.4, 278.9 226.8 Q 279.3 226.3, 280.1 225.8 Q 279.5 225.5, 279.1 225.0 Q 278.8 224.5, 278.8 223.7 Q 278.8 222.6, 279.6 222.0 Q 280.4 221.3, 281.7 221.3 Q 283.1 221.3, 283.9 222.0 Q 284.7 222.6, 284.7 223.7 Q 284.7 224.4, 284.3 224.9 Q 283.9 225.4, 283.2 225.8 M 281.7 222.3 Q 281.0 222.3, 280.5 222.7 Q 280.1 223.1, 280.1 223.7 Q 280.1 224.2, 280.4 224.5 Q 280.7 224.8, 281.1 225.0 Q 281.5 225.2, 282.3 225.5 Q 282.9 225.1, 283.1 224.7 Q 283.4 224.2, 283.4 223.7 Q 283.4 223.1, 282.9 222.7 Q 282.5 222.3, 281.7 222.3 M 281.8 229.8 Q 282.7 229.8, 283.2 229.4 Q 283.7 228.9, 283.7 228.1 Q 283.7 227.6, 283.4 227.3 Q 283.1 227.0, 282.7 226.8 Q 282.3 226.7, 281.6 226.4 L 281.0 226.2 Q 280.4 226.6, 280.1 227.1 Q 279.8 227.5, 279.8 228.1 Q 279.8 228.9, 280.3 229.4 Q 280.9 229.8, 281.8 229.8 " fill="#000000"/>
<path class="note" d="M 281.6 69.2 Q 283.3 69.2, 284.1 70.3 Q 284.9 71.4, 284.9 73.6 Q 284.9 76.1, 283.9 77.4 Q 282.9 78.6, 280.9 78.6 Q 280.4 78.6, 279.9 78.5 Q 279.4 78.4, 278.9 78.1 L 279.4 77.2 Q 280.1 77.6, 280.9 77.6 Q 282.2 77.6, 282.9 76.8 Q 283.5 75.9, 283.6 74.2 Q 283.2 74.6, 282.6 74.8 Q 282.0 75.1, 281.3 75.1 Q 280.5 75.1, 279.9 74.7 Q 279.2 74.4, 278.9 73.7 Q 278.5 73.1, 278.5 72.3 Q 278.5 71.4, 278.9 70.7 Q 279.3 70.0, 280.0 69.6 Q 280.7 69.2, 281.6 69.2 M 279.8 72.3 Q 279.8 73.1, 280.3 73.5 Q 280.8 74.0, 281.6 74.0 Q 282.1 74.0, 282.7 73.8 Q 283.2 73.6, 283.6 73.2 Q 283.6 71.6, 283.1 70.9 Q 282.6 70.3, 281.6 70.3 Q 281.1 70.3, 280.7 70.5 Q 280.3 70.8, 280.1 71.2 Q 279.8 71.7, 279.8 72.3 " fill="#000000"/>
</svg>