<svg xmlns="http://www.w3.org/2000/svg" xmlns:rdkit="http://www.rdkit.org/xml" xmlns:xlink="http://www.w3.org/1999/xlink" version="1.1" baseProfile="full" xml:space="preserve" width="300px" height="300px" viewBox="0 0 300 300">
<!-- END OF HEADER -->
<path class="bond-4 atom-3 atom-5" d="M 97.9,122.5 L 137.6,126.0 L 139.8,130.7 L 136.8,135.0 L 97.1,131.6 Z" style="fill:#7E5273;fill-rule:evenodd;fill-opacity:1;stroke:#7E5273;stroke-width:0.0px;stroke-linecap:butt;stroke-linejoin:miter;stroke-miterlimit:10;stroke-opacity:1;"/>
<path class="bond-5 atom-5 atom-6" d="M 160.4,93.3 L 167.9,98.5 L 145.0,131.2 L 139.8,130.7 L 137.6,126.0 Z" style="fill:#7E5273;fill-rule:evenodd;fill-opacity:1;stroke:#7E5273;stroke-width:0.0px;stroke-linecap:butt;stroke-linejoin:miter;stroke-miterlimit:10;stroke-opacity:1;"/>
<path class="bond-6 atom-5 atom-7" d="M 139.8,130.7 L 145.0,131.2 L 160.8,164.9 L 157.8,169.2 L 152.6,168.7 L 136.8,135.0 Z" style="fill:#7E5273;fill-rule:evenodd;fill-opacity:1;stroke:#7E5273;stroke-width:0.0px;stroke-linecap:butt;stroke-linejoin:miter;stroke-miterlimit:10;stroke-opacity:1;"/>
<path class="bond-7 atom-7 atom-8" d="M 152.6,168.7 L 157.8,169.2 L 160.0,173.9 L 137.2,206.6 L 129.7,201.4 Z" style="fill:#7E5273;fill-rule:evenodd;fill-opacity:1;stroke:#7E5273;stroke-width:0.0px;stroke-linecap:butt;stroke-linejoin:miter;stroke-miterlimit:10;stroke-opacity:1;"/>
<path class="bond-8 atom-7 atom-9" d="M 160.8,164.9 L 200.5,168.3 L 199.7,177.4 L 160.0,173.9 L 157.8,169.2 Z" style="fill:#7E5273;fill-rule:evenodd;fill-opacity:1;stroke:#7E5273;stroke-width:0.0px;stroke-linecap:butt;stroke-linejoin:miter;stroke-miterlimit:10;stroke-opacity:1;"/>
<ellipse cx="97.5" cy="127.0" rx="8.5" ry="8.5" class="atom-3" style="fill:#7E5273;fill-rule:evenodd;stroke:#7E5273;stroke-width:1.0px;stroke-linecap:butt;stroke-linejoin:miter;stroke-opacity:1"/>
<ellipse cx="139.8" cy="130.7" rx="8.5" ry="8.5" class="atom-5" style="fill:#7E5273;fill-rule:evenodd;stroke:#7E5273;stroke-width:1.0px;stroke-linecap:butt;stroke-linejoin:miter;stroke-opacity:1"/>
<ellipse cx="164.2" cy="95.9" rx="8.5" ry="8.5" class="atom-6" style="fill:#7E5273;fill-rule:evenodd;stroke:#7E5273;stroke-width:1.0px;stroke-linecap:butt;stroke-linejoin:miter;stroke-opacity:1"/>
<ellipse cx="157.8" cy="169.2" rx="8.5" ry="8.5" class="atom-7" style="fill:#7E5273;fill-rule:evenodd;stroke:#7E5273;stroke-width:1.0px;stroke-linecap:butt;stroke-linejoin:miter;stroke-opacity:1"/>
<ellipse cx="133.5" cy="204.0" rx="8.5" ry="8.5" class="atom-8" style="fill:#7E5273;fill-rule:evenodd;stroke:#7E5273;stroke-width:1.0px;stroke-linecap:butt;stroke-linejoin:miter;stroke-opacity:1"/>
<ellipse cx="200.1" cy="172.9" rx="8.5" ry="8.5" class="atom-9" style="fill:#7E5273;fill-rule:evenodd;stroke:#7E5273;stroke-width:1.0px;stroke-linecap:butt;stroke-linejoin:miter;stroke-opacity:1"/>
<path class="bond-0 atom-0 atom-1" d="M 73.2,161.8 L 37.0,158.7" style="fill:none;fill-rule:evenodd;stroke:#000000;stroke-width:2.0px;stroke-linecap:butt;stroke-linejoin:miter;stroke-opacity:1"/>
<path class="bond-1 atom-0 atom-2" d="M 73.2,161.8 L 87.7,192.9" style="fill:none;fill-rule:evenodd;stroke:#000000;stroke-width:2.0px;stroke-linecap:butt;stroke-linejoin:miter;stroke-opacity:1"/>
<path class="bond-2 atom-0 atom-3" d="M 73.2,161.8 L 97.5,127.0" style="fill:none;fill-rule:evenodd;stroke:#000000;stroke-width:2.0px;stroke-linecap:butt;stroke-linejoin:miter;stroke-opacity:1"/>
<path class="bond-2 atom-0 atom-3" d="M 70.1,155.2 L 90.2,126.4" style="fill:none;fill-rule:evenodd;stroke:#000000;stroke-width:2.0px;stroke-linecap:butt;stroke-linejoin:miter;stroke-opacity:1"/>
<path class="bond-3 atom-3 atom-4" d="M 97.5,127.0 L 83.0,96.0" style="fill:none;fill-rule:evenodd;stroke:#000000;stroke-width:2.0px;stroke-linecap:butt;stroke-linejoin:miter;stroke-opacity:1"/>
<path class="bond-4 atom-3 atom-5" d="M 97.5,127.0 L 139.8,130.7" style="fill:none;fill-rule:evenodd;stroke:#000000;stroke-width:2.0px;stroke-linecap:butt;stroke-linejoin:miter;stroke-opacity:1"/>
<path class="bond-5 atom-5 atom-6" d="M 139.8,130.7 L 159.0,103.3" style="fill:none;fill-rule:evenodd;stroke:#000000;stroke-width:2.0px;stroke-linecap:butt;stroke-linejoin:miter;stroke-opacity:1"/>
<path class="bond-6 atom-5 atom-7" d="M 139.8,130.7 L 157.8,169.2" style="fill:none;fill-rule:evenodd;stroke:#000000;stroke-width:2.0px;stroke-linecap:butt;stroke-linejoin:miter;stroke-opacity:1"/>
<path class="bond-6 atom-5 atom-7" d="M 135.6,136.7 L 150.5,168.5" style="fill:none;fill-rule:evenodd;stroke:#000000;stroke-width:2.0px;stroke-linecap:butt;stroke-linejoin:miter;stroke-opacity:1"/>
<path class="bond-7 atom-7 atom-8" d="M 157.8,169.2 L 138.6,196.6" style="fill:none;fill-rule:evenodd;stroke:#000000;stroke-width:2.0px;stroke-linecap:butt;stroke-linejoin:miter;stroke-opacity:1"/>
<path class="bond-8 atom-7 atom-9" d="M 157.8,169.2 L 200.1,172.9" style="fill:none;fill-rule:evenodd;stroke:#000000;stroke-width:2.0px;stroke-linecap:butt;stroke-linejoin:miter;stroke-opacity:1"/>
<path class="bond-9 atom-9 atom-10" d="M 200.1,172.9 L 214.6,203.9" style="fill:none;fill-rule:evenodd;stroke:#000000;stroke-width:2.0px;stroke-linecap:butt;stroke-linejoin:miter;stroke-opacity:1"/>
<path class="bond-10 atom-9 atom-11" d="M 200.1,172.9 L 209.6,159.2" style="fill:none;fill-rule:evenodd;stroke:#000000;stroke-width:2.0px;stroke-linecap:butt;stroke-linejoin:miter;stroke-opacity:1"/>
<path class="bond-10 atom-9 atom-11" d="M 209.6,159.2 L 219.2,145.5" style="fill:none;fill-rule:evenodd;stroke:#0000FF;stroke-width:2.0px;stroke-linecap:butt;stroke-linejoin:miter;stroke-opacity:1"/>
<path class="bond-10 atom-9 atom-11" d="M 197.0,166.2 L 205.5,154.0" style="fill:none;fill-rule:evenodd;stroke:#000000;stroke-width:2.0px;stroke-linecap:butt;stroke-linejoin:miter;stroke-opacity:1"/>
<path class="bond-10 atom-9 atom-11" d="M 205.5,154.0 L 214.0,141.8" style="fill:none;fill-rule:evenodd;stroke:#0000FF;stroke-width:2.0px;stroke-linecap:butt;stroke-linejoin:miter;stroke-opacity:1"/>
<path class="bond-11 atom-11 atom-12" d="M 231.4,138.7 L 246.0,139.9" style="fill:none;fill-rule:evenodd;stroke:#0000FF;stroke-width:2.0px;stroke-linecap:butt;stroke-linejoin:miter;stroke-opacity:1"/>
<path class="bond-11 atom-11 atom-12" d="M 246.0,139.9 L 260.6,141.2" style="fill:none;fill-rule:evenodd;stroke:#000000;stroke-width:2.0px;stroke-linecap:butt;stroke-linejoin:miter;stroke-opacity:1"/>
<path class="bond-12 atom-11 atom-13" d="M 220.9,130.7 L 215.4,118.8" style="fill:none;fill-rule:evenodd;stroke:#0000FF;stroke-width:2.0px;stroke-linecap:butt;stroke-linejoin:miter;stroke-opacity:1"/>
<path class="bond-12 atom-11 atom-13" d="M 215.4,118.8 L 209.9,107.0" style="fill:none;fill-rule:evenodd;stroke:#000000;stroke-width:2.0px;stroke-linecap:butt;stroke-linejoin:miter;stroke-opacity:1"/>
<path class="atom-1" d="M 26.2 152.1 L 27.8 152.1 L 27.8 157.3 L 34.0 157.3 L 34.0 152.1 L 35.6 152.1 L 35.6 164.2 L 34.0 164.2 L 34.0 158.6 L 27.8 158.6 L 27.8 164.2 L 26.2 164.2 L 26.2 152.1 " fill="#000000"/>
<path class="atom-2" d="M 86.5 194.3 L 88.1 194.3 L 88.1 199.4 L 94.2 199.4 L 94.2 194.3 L 95.9 194.3 L 95.9 206.3 L 94.2 206.3 L 94.2 200.8 L 88.1 200.8 L 88.1 206.3 L 86.5 206.3 L 86.5 194.3 " fill="#000000"/>
<path class="atom-4" d="M 74.9 82.6 L 76.5 82.6 L 76.5 87.7 L 82.6 87.7 L 82.6 82.6 L 84.3 82.6 L 84.3 94.6 L 82.6 94.6 L 82.6 89.0 L 76.5 89.0 L 76.5 94.6 L 74.9 94.6 L 74.9 82.6 " fill="#000000"/>
<path class="atom-6" d="M 159.4 89.9 L 161.1 89.9 L 161.1 95.0 L 167.2 95.0 L 167.2 89.9 L 168.9 89.9 L 168.9 101.9 L 167.2 101.9 L 167.2 96.4 L 161.1 96.4 L 161.1 101.9 L 159.4 101.9 L 159.4 89.9 " fill="#000000"/>
<path class="atom-8" d="M 128.8 198.0 L 130.4 198.0 L 130.4 203.1 L 136.5 203.1 L 136.5 198.0 L 138.2 198.0 L 138.2 210.0 L 136.5 210.0 L 136.5 204.4 L 130.4 204.4 L 130.4 210.0 L 128.8 210.0 L 128.8 198.0 " fill="#000000"/>
<path class="atom-10" d="M 213.3 205.3 L 215.0 205.3 L 215.0 210.4 L 221.1 210.4 L 221.1 205.3 L 222.7 205.3 L 222.7 217.3 L 221.1 217.3 L 221.1 211.8 L 215.0 211.8 L 215.0 217.3 L 213.3 217.3 L 213.3 205.3 " fill="#000000"/>
<path class="atom-11" d="M 221.7 132.1 L 225.7 138.4 Q 226.1 139.1, 226.7 140.2 Q 227.3 141.3, 227.4 141.4 L 227.4 132.1 L 229.0 132.1 L 229.0 144.1 L 227.3 144.1 L 223.1 137.1 Q 222.6 136.3, 222.1 135.4 Q 221.6 134.4, 221.4 134.1 L 221.4 144.1 L 219.8 144.1 L 219.8 132.1 L 221.7 132.1 " fill="#0000FF"/>
<path class="atom-11" d="M 231.2 134.2 L 233.3 134.2 L 233.3 132.0 L 234.3 132.0 L 234.3 134.2 L 236.5 134.2 L 236.5 135.0 L 234.3 135.0 L 234.3 137.3 L 233.3 137.3 L 233.3 135.0 L 231.2 135.0 L 231.2 134.2 " fill="#0000FF"/>
<path class="atom-12" d="M 262.0 135.7 L 263.6 135.7 L 263.6 140.8 L 269.8 140.8 L 269.8 135.7 L 271.4 135.7 L 271.4 147.8 L 269.8 147.8 L 269.8 142.2 L 263.6 142.2 L 263.6 147.8 L 262.0 147.8 L 262.0 135.7 " fill="#000000"/>
<path class="atom-13" d="M 201.7 93.6 L 203.4 93.6 L 203.4 98.7 L 209.5 98.7 L 209.5 93.6 L 211.1 93.6 L 211.1 105.6 L 209.5 105.6 L 209.5 100.1 L 203.4 100.1 L 203.4 105.6 L 201.7 105.6 L 201.7 93.6 " fill="#000000"/>
<path class="note" d="M 69.1 170.7 Q 68.0 170.7, 67.5 169.9 Q 66.9 169.1, 66.9 167.7 Q 66.9 166.2, 67.5 165.4 Q 68.0 164.6, 69.1 164.6 Q 70.3 164.6, 70.8 165.4 Q 71.3 166.2, 71.3 167.7 Q 71.3 169.1, 70.8 169.9 Q 70.2 170.7, 69.1 170.7 M 69.1 170.1 Q 69.8 170.1, 70.1 169.5 Q 70.5 168.8, 70.5 167.7 Q 70.5 166.5, 70.1 165.9 Q 69.8 165.3, 69.1 165.3 Q 68.5 165.3, 68.1 165.9 Q 67.8 166.5, 67.8 167.7 Q 67.8 168.8, 68.1 169.5 Q 68.5 170.1, 69.1 170.1 " fill="#000000"/>
<path class="note" d="M 15.3 159.3 L 16.6 159.3 L 16.6 154.8 L 15.2 155.2 L 15.0 154.7 L 16.8 153.9 L 17.4 154.0 L 17.4 159.3 L 18.6 159.3 L 18.6 160.0 L 15.3 160.0 L 15.3 159.3 " fill="#000000"/>
<path class="note" d="M 95.1 211.3 Q 95.4 210.7, 95.9 210.4 Q 96.4 210.1, 97.1 210.1 Q 98.1 210.1, 98.6 210.6 Q 99.1 211.1, 99.1 211.9 Q 99.1 212.8, 98.4 213.7 Q 97.8 214.5, 96.4 215.5 L 99.2 215.5 L 99.2 216.2 L 95.1 216.2 L 95.1 215.6 Q 96.2 214.8, 96.9 214.2 Q 97.6 213.6, 97.9 213.1 Q 98.2 212.5, 98.2 212.0 Q 98.2 211.4, 97.9 211.1 Q 97.6 210.8, 97.1 210.8 Q 96.7 210.8, 96.3 210.9 Q 96.0 211.1, 95.8 211.6 L 95.1 211.3 " fill="#000000"/>
<path class="note" d="M 102.5 121.1 Q 103.0 121.3, 103.3 121.7 Q 103.6 122.0, 103.6 122.6 Q 103.6 123.1, 103.4 123.5 Q 103.1 123.9, 102.6 124.2 Q 102.2 124.4, 101.6 124.4 Q 100.9 124.4, 100.4 124.1 Q 99.9 123.9, 99.6 123.5 L 100.0 123.0 Q 100.4 123.4, 100.7 123.5 Q 101.0 123.7, 101.6 123.7 Q 102.1 123.7, 102.4 123.4 Q 102.8 123.1, 102.8 122.6 Q 102.8 122.0, 102.4 121.7 Q 102.1 121.5, 101.3 121.5 L 100.9 121.5 L 100.9 120.9 L 101.3 120.9 Q 101.9 120.8, 102.3 120.6 Q 102.6 120.3, 102.6 119.7 Q 102.6 119.4, 102.3 119.1 Q 102.1 118.9, 101.6 118.9 Q 101.1 118.9, 100.7 119.1 Q 100.4 119.2, 100.2 119.7 L 99.6 119.4 Q 99.8 118.9, 100.3 118.5 Q 100.8 118.2, 101.6 118.2 Q 102.4 118.2, 103.0 118.6 Q 103.5 119.0, 103.5 119.7 Q 103.5 120.2, 103.2 120.6 Q 103.0 120.9, 102.5 121.1 " fill="#000000"/>
<path class="note" d="M 75.2 76.7 L 75.9 76.7 L 75.9 77.4 L 75.2 77.4 L 75.2 78.8 L 74.4 78.8 L 74.4 77.4 L 71.3 77.4 L 71.3 76.8 L 73.9 72.8 L 75.2 72.8 L 75.2 76.7 M 72.3 76.7 L 74.4 76.7 L 74.4 73.3 L 72.3 76.7 " fill="#000000"/>
<path class="note" d="M 137.0 123.6 Q 137.5 123.6, 137.9 123.8 Q 138.4 124.0, 138.6 124.4 Q 138.9 124.8, 138.9 125.4 Q 138.9 126.0, 138.6 126.5 Q 138.3 126.9, 137.8 127.2 Q 137.3 127.4, 136.7 127.4 Q 136.2 127.4, 135.7 127.2 Q 135.1 127.0, 134.8 126.6 L 135.3 126.1 Q 135.6 126.4, 136.0 126.5 Q 136.3 126.7, 136.7 126.7 Q 137.3 126.7, 137.6 126.4 Q 138.0 126.0, 138.0 125.4 Q 138.0 124.8, 137.6 124.5 Q 137.3 124.2, 136.7 124.2 Q 136.2 124.2, 135.6 124.4 L 135.1 124.2 L 135.4 121.3 L 138.5 121.3 L 138.4 122.0 L 136.1 122.0 L 135.9 123.8 Q 136.4 123.6, 137.0 123.6 " fill="#000000"/>
<path class="note" d="M 172.5 83.6 Q 173.1 83.6, 173.5 83.9 Q 173.9 84.1, 174.1 84.5 Q 174.3 84.9, 174.3 85.4 Q 174.3 86.0, 174.1 86.5 Q 173.8 86.9, 173.4 87.2 Q 172.9 87.4, 172.3 87.4 Q 171.3 87.4, 170.7 86.7 Q 170.2 86.0, 170.2 84.5 Q 170.2 83.0, 170.8 82.1 Q 171.5 81.3, 172.8 81.3 Q 173.2 81.3, 173.5 81.4 Q 173.8 81.5, 174.1 81.6 L 173.8 82.2 Q 173.3 82.0, 172.8 82.0 Q 171.9 82.0, 171.5 82.5 Q 171.1 83.1, 171.0 84.2 Q 171.3 83.9, 171.7 83.8 Q 172.1 83.6, 172.5 83.6 M 172.3 86.7 Q 172.7 86.7, 172.9 86.6 Q 173.2 86.4, 173.3 86.1 Q 173.5 85.8, 173.5 85.4 Q 173.5 84.9, 173.2 84.6 Q 172.9 84.3, 172.4 84.3 Q 172.0 84.3, 171.6 84.5 Q 171.3 84.6, 171.0 84.9 Q 171.1 85.8, 171.4 86.3 Q 171.7 86.7, 172.3 86.7 " fill="#000000"/>
<path class="note" d="M 163.0 161.1 L 159.8 161.1 L 159.8 160.4 L 163.8 160.4 L 163.8 161.0 L 161.4 166.4 L 160.6 166.4 L 163.0 161.1 " fill="#000000"/>
<path class="note" d="M 126.3 215.4 Q 126.8 215.7, 127.2 216.0 Q 127.5 216.4, 127.5 217.0 Q 127.5 217.5, 127.2 217.9 Q 126.9 218.3, 126.5 218.5 Q 126.0 218.7, 125.4 218.7 Q 124.4 218.7, 123.8 218.2 Q 123.2 217.8, 123.2 217.0 Q 123.2 216.5, 123.5 216.1 Q 123.7 215.7, 124.3 215.4 Q 123.9 215.2, 123.7 214.9 Q 123.4 214.6, 123.4 214.1 Q 123.4 213.4, 124.0 212.9 Q 124.5 212.5, 125.3 212.5 Q 126.2 212.5, 126.7 212.9 Q 127.2 213.4, 127.2 214.1 Q 127.2 214.5, 127.0 214.8 Q 126.8 215.2, 126.3 215.4 M 125.3 213.2 Q 124.8 213.2, 124.6 213.4 Q 124.3 213.6, 124.3 214.1 Q 124.3 214.4, 124.5 214.6 Q 124.7 214.8, 124.9 214.9 Q 125.2 215.0, 125.7 215.2 Q 126.1 215.0, 126.2 214.7 Q 126.4 214.4, 126.4 214.1 Q 126.4 213.6, 126.1 213.4 Q 125.8 213.2, 125.3 213.2 M 125.4 218.1 Q 125.9 218.1, 126.3 217.8 Q 126.6 217.4, 126.6 216.9 Q 126.6 216.6, 126.4 216.4 Q 126.3 216.2, 126.0 216.1 Q 125.7 216.0, 125.3 215.8 L 124.9 215.7 Q 124.4 216.0, 124.3 216.3 Q 124.1 216.6, 124.1 216.9 Q 124.1 217.4, 124.4 217.8 Q 124.8 218.1, 125.4 218.1 " fill="#000000"/>
<path class="note" d="M 196.0 175.6 Q 197.0 175.6, 197.6 176.3 Q 198.1 177.1, 198.1 178.5 Q 198.1 180.1, 197.4 180.9 Q 196.8 181.8, 195.5 181.8 Q 195.1 181.8, 194.8 181.7 Q 194.5 181.6, 194.2 181.4 L 194.5 180.8 Q 194.9 181.1, 195.5 181.1 Q 196.3 181.1, 196.8 180.5 Q 197.2 180.0, 197.2 178.9 Q 196.9 179.1, 196.6 179.3 Q 196.2 179.4, 195.8 179.4 Q 195.2 179.4, 194.8 179.2 Q 194.4 179.0, 194.2 178.6 Q 193.9 178.1, 193.9 177.6 Q 193.9 177.0, 194.2 176.6 Q 194.5 176.1, 194.9 175.9 Q 195.4 175.6, 196.0 175.6 M 194.8 177.6 Q 194.8 178.1, 195.1 178.5 Q 195.4 178.8, 195.9 178.8 Q 196.3 178.8, 196.6 178.6 Q 197.0 178.5, 197.2 178.2 Q 197.2 177.2, 196.9 176.8 Q 196.6 176.3, 195.9 176.3 Q 195.6 176.3, 195.4 176.5 Q 195.1 176.7, 194.9 176.9 Q 194.8 177.2, 194.8 177.6 " fill="#000000"/>
<path class="note" d="M 220.0 226.5 L 221.3 226.5 L 221.3 222.0 L 219.8 222.5 L 219.6 222.0 L 221.5 221.1 L 222.1 221.2 L 222.1 226.5 L 223.3 226.5 L 223.3 227.2 L 220.0 227.2 L 220.0 226.5 " fill="#000000"/>
<path class="note" d="M 226.2 227.2 Q 225.1 227.2, 224.6 226.4 Q 224.0 225.6, 224.0 224.2 Q 224.0 222.7, 224.6 221.9 Q 225.1 221.1, 226.2 221.1 Q 227.3 221.1, 227.9 221.9 Q 228.4 222.7, 228.4 224.2 Q 228.4 225.6, 227.9 226.4 Q 227.3 227.2, 226.2 227.2 M 226.2 226.6 Q 226.9 226.6, 227.2 226.0 Q 227.6 225.4, 227.6 224.2 Q 227.6 223.0, 227.2 222.4 Q 226.9 221.8, 226.2 221.8 Q 225.6 221.8, 225.2 222.4 Q 224.9 223.0, 224.9 224.2 Q 224.9 225.4, 225.2 226.0 Q 225.6 226.6, 226.2 226.6 " fill="#000000"/>
<path class="note" d="M 226.7 153.2 L 228.1 153.2 L 228.1 148.7 L 226.6 149.2 L 226.4 148.7 L 228.2 147.9 L 228.9 148.0 L 228.9 153.2 L 230.0 153.2 L 230.0 153.9 L 226.7 153.9 L 226.7 153.2 " fill="#000000"/>
<path class="note" d="M 231.1 153.2 L 232.4 153.2 L 232.4 148.7 L 230.9 149.2 L 230.8 148.7 L 232.6 147.9 L 233.2 148.0 L 233.2 153.2 L 234.4 153.2 L 234.4 153.9 L 231.1 153.9 L 231.1 153.2 " fill="#000000"/>
<path class="note" d="M 276.9 145.3 L 278.2 145.3 L 278.2 140.8 L 276.8 141.3 L 276.6 140.8 L 278.4 140.0 L 279.0 140.1 L 279.0 145.3 L 280.2 145.3 L 280.2 146.0 L 276.9 146.0 L 276.9 145.3 " fill="#000000"/>
<path class="note" d="M 281.0 141.1 Q 281.2 140.6, 281.7 140.3 Q 282.2 139.9, 283.0 139.9 Q 283.9 139.9, 284.4 140.4 Q 284.9 140.9, 284.9 141.8 Q 284.9 142.7, 284.2 143.5 Q 283.6 144.3, 282.2 145.3 L 285.0 145.3 L 285.0 146.0 L 281.0 146.0 L 281.0 145.4 Q 282.1 144.6, 282.7 144.0 Q 283.4 143.5, 283.7 142.9 Q 284.0 142.4, 284.0 141.8 Q 284.0 141.3, 283.8 140.9 Q 283.5 140.6, 283.0 140.6 Q 282.5 140.6, 282.2 140.8 Q 281.8 141.0, 281.6 141.4 L 281.0 141.1 " fill="#000000"/>
<path class="note" d="M 196.6 89.1 L 197.9 89.1 L 197.9 84.7 L 196.4 85.1 L 196.3 84.6 L 198.1 83.8 L 198.7 83.9 L 198.7 89.1 L 199.9 89.1 L 199.9 89.8 L 196.6 89.8 L 196.6 89.1 " fill="#000000"/>
<path class="note" d="M 203.5 86.7 Q 204.1 86.8, 204.4 87.2 Q 204.7 87.6, 204.7 88.2 Q 204.7 88.7, 204.4 89.1 Q 204.1 89.5, 203.7 89.7 Q 203.2 89.9, 202.6 89.9 Q 202.0 89.9, 201.5 89.7 Q 201.0 89.5, 200.6 89.0 L 201.1 88.5 Q 201.5 88.9, 201.8 89.1 Q 202.1 89.2, 202.6 89.2 Q 203.1 89.2, 203.5 88.9 Q 203.8 88.6, 203.8 88.2 Q 203.8 87.6, 203.5 87.3 Q 203.1 87.0, 202.4 87.0 L 201.9 87.0 L 201.9 86.4 L 202.3 86.4 Q 203.0 86.4, 203.3 86.1 Q 203.7 85.8, 203.7 85.3 Q 203.7 84.9, 203.4 84.7 Q 203.1 84.4, 202.6 84.4 Q 202.1 84.4, 201.8 84.6 Q 201.5 84.8, 201.3 85.2 L 200.7 84.9 Q 200.9 84.4, 201.4 84.1 Q 201.9 83.7, 202.6 83.7 Q 203.5 83.7, 204.0 84.2 Q 204.5 84.6, 204.5 85.3 Q 204.5 85.8, 204.3 86.1 Q 204.0 86.5, 203.5 86.7 " fill="#000000"/>
</svg>