<?xml version="1.0" encoding="UTF-8" standalone="no"?>
<!-- Created with Inkscape (http://www.inkscape.org/) -->

<svg
   width="210mm"
   height="297mm"
   viewBox="0 0 210 297"
   version="1.1"
   id="svg5"
   xml:space="preserve"
   inkscape:version="1.2.2 (1:1.2.2+202305151915+b0a8486541)"
   sodipodi:docname="icon_SHNITSEL.svg"
   xmlns:inkscape="http://www.inkscape.org/namespaces/inkscape"
   xmlns:sodipodi="http://sodipodi.sourceforge.net/DTD/sodipodi-0.dtd"
   xmlns:xlink="http://www.w3.org/1999/xlink"
   xmlns="http://www.w3.org/2000/svg"
   xmlns:svg="http://www.w3.org/2000/svg"><sodipodi:namedview
     id="namedview7"
     pagecolor="#ffffff"
     bordercolor="#000000"
     borderopacity="0.25"
     inkscape:showpageshadow="2"
     inkscape:pageopacity="0.0"
     inkscape:pagecheckerboard="0"
     inkscape:deskcolor="#d1d1d1"
     inkscape:document-units="mm"
     showgrid="false"
     inkscape:zoom="0.75722505"
     inkscape:cx="149.88939"
     inkscape:cy="402.12616"
     inkscape:window-width="1866"
     inkscape:window-height="1016"
     inkscape:window-x="54"
     inkscape:window-y="27"
     inkscape:window-maximized="1"
     inkscape:current-layer="layer1" /><defs
     id="defs2"><linearGradient
       inkscape:collect="always"
       id="linearGradient1679"><stop
         style="stop-color:#ffffff;stop-opacity:1"
         offset="0"
         id="stop1675" /><stop
         style="stop-color:#fce94f;stop-opacity:1"
         offset="1"
         id="stop1677" /></linearGradient><linearGradient
       inkscape:collect="always"
       id="linearGradient1492"><stop
         style="stop-color:#ffffff;stop-opacity:1;"
         offset="0"
         id="stop1488" /><stop
         style="stop-color:#fce94f;stop-opacity:1"
         offset="1"
         id="stop1490" /></linearGradient><linearGradient
       inkscape:collect="always"
       xlink:href="#linearGradient1492"
       id="linearGradient1494"
       x1="106.47236"
       y1="117.35834"
       x2="106.24861"
       y2="104.28314"
       gradientUnits="userSpaceOnUse" /><linearGradient
       inkscape:collect="always"
       xlink:href="#linearGradient1679"
       id="linearGradient1681"
       x1="74.198433"
       y1="128.29001"
       x2="74.246475"
       y2="116.84604"
       gradientUnits="userSpaceOnUse" /></defs><g
     inkscape:label="Layer 1"
     inkscape:groupmode="layer"
     id="layer1"><g
       id="g4143"
       inkscape:export-filename="ICON_DISCUSS.png"
       inkscape:export-xdpi="600"
       inkscape:export-ydpi="600"><ellipse
         style="fill:#2c3e50;stroke:none;stroke-width:1.13368;stroke-linecap:round;stroke-linejoin:round;paint-order:stroke fill markers;fill-opacity:1"
         id="path454"
         cx="45.953167"
         cy="40.673222"
         rx="24.433157"
         ry="24.433159" /><g
         id="g3952"
         transform="matrix(1.0583323,0,0,1.0583323,-2.680554,-1.4483942)"><path
           style="fill:#ffffff;stroke:#ffffff;stroke-width:1.2846;stroke-linecap:round;stroke-linejoin:round;paint-order:stroke fill markers"
           d="m 37.098687,36.657992 a 1.3576994,1.3576975 0 0 1 -1.357699,1.3577 1.3576994,1.3576975 0 0 1 -1.3577,-1.3577 1.3576994,1.3576975 0 0 1 1.3577,-1.35769 1.3576994,1.3576975 0 0 1 1.357699,1.35769 z"
           id="path3873" /><path
           style="fill:#ffffff;stroke:#ffffff;stroke-width:1.2846;stroke-linecap:round;stroke-linejoin:round;paint-order:stroke fill markers"
           d="m 42.133117,36.657992 a 1.3576994,1.3576975 0 0 1 -1.3577,1.3577 1.3576994,1.3576975 0 0 1 -1.357699,-1.3577 1.3576994,1.3576975 0 0 1 1.357699,-1.35769 1.3576994,1.3576975 0 0 1 1.3577,1.35769 z"
           id="path3871" /><path
           id="path3945"
           style="fill:none;stroke:#ffffff;stroke-width:1.2846;stroke-linecap:round;stroke-linejoin:round;paint-order:stroke fill markers"
           d="m 33.68705,44.244402 h -0.901219 c -1.192854,0 -2.153167,-0.96032 -2.153167,-2.15317 v -10.23738 c 0,-1.19285 0.960313,-2.15317 2.153167,-2.15317 v 0 h 16.456548 c 1.192853,0 2.153167,0.96032 2.153167,2.15317 v 10.23738 c 0,1.19285 -0.960314,2.15317 -2.153167,2.15317 H 38.844772 m -5.187035,0.0047 -0.0046,5.3456 5.090977,-5.29339 m 13.868852,5.1711 c -0.50251,0.058 -1.009993,0.0872 -1.518187,0.0872 -4.176787,0 -7.766009,-1.92678 -9.335074,-4.68313 m 10.325358,-10.87244 c 5.156945,0.38133 9.188612,3.70986 9.188607,7.75958 v 0 c 0,2.21915 -1.234798,4.33313 -3.394923,5.81213 m -5.215949,1.933 7.212174,2.13702 -1.935449,-4.0687" /><path
           style="fill:#ffffff;stroke:#ffffff;stroke-width:1.2846;stroke-linecap:round;stroke-linejoin:round;paint-order:stroke fill markers"
           d="m 47.167546,36.657992 a 1.3576994,1.3576975 0 0 1 -1.357699,1.3577 1.3576994,1.3576975 0 0 1 -1.3577,-1.3577 1.3576994,1.3576975 0 0 1 1.3577,-1.35769 1.3576994,1.3576975 0 0 1 1.357699,1.35769 z"
           id="path3809-9-3" /></g></g><g
       id="g4135"
       inkscape:export-filename="ICON_LICENSE.png"
       inkscape:export-xdpi="600"
       inkscape:export-ydpi="600"><ellipse
         style="fill:#2c3e50;fill-opacity:1;stroke:none;stroke-width:1.13368;stroke-linecap:round;stroke-linejoin:round;paint-order:stroke fill markers"
         id="path454-3"
         cx="106.30861"
         cy="43.216202"
         rx="24.433157"
         ry="24.433159" /><path
         id="path4108"
         style="fill:none;stroke:#ffffff;stroke-width:1.68849;stroke-linecap:round;stroke-linejoin:round;stroke-dasharray:none;paint-order:stroke fill markers"
         d="m 113.73179,50.65483 c 0,1.159433 -0.9399,2.099341 -2.09934,2.099341 -1.15944,0 -2.09934,-0.939908 -2.09934,-2.099341 0,-1.159434 0.9399,-2.099337 2.09934,-2.099337 1.15944,0 2.09934,0.939903 2.09934,2.099337 z m -14.570831,1.335656 7.358511,0.05794 m -7.238611,-2.868291 7.276371,-0.0073 m -7.438231,-5.974998 14.379221,0.03673 m -14.179471,-3.243056 13.933241,0.05987 m -13.723781,-7.710858 4.991091,0.07164 m -9.144227,24.269039 0.04948,-28.821175 14.771617,0.08425 7.09273,7.23687 -7.1394,-0.120738 0.04,-7.161051 7.37566,7.335803 -9.9e-4,21.44031 z" /></g><g
       id="g4286"
       inkscape:export-filename="ICON_CONTRIBUTE.png"
       inkscape:export-xdpi="600"
       inkscape:export-ydpi="600"><ellipse
         style="fill:#2c3e50;fill-opacity:1;stroke:none;stroke-width:1.13368;stroke-linecap:round;stroke-linejoin:round;paint-order:stroke fill markers"
         id="path454-3-6"
         cx="167.43486"
         cy="43.598907"
         rx="24.433157"
         ry="24.433159" /><path
         id="path4280"
         style="fill:none;fill-opacity:1;stroke:#ffffff;stroke-width:1.5;stroke-linecap:round;stroke-linejoin:round;stroke-dasharray:none;paint-order:stroke fill markers"
         d="m 162.90181,40.684882 v 0.33469 m -0.13782,-0.31414 z m 0.0415,-5.17248 -0.0339,2.72766 m -3.02358,-5.81383 3.05366,-0.0438 c 0,0 0.14512,-2.63307 2.84057,-2.65207 2.55455,-0.018 2.62319,2.80727 2.62319,2.80727 l 2.90805,10e-4 -0.005,2.83204 c 0,0 2.70326,0.62961 2.70203,2.63917 -0.001,2.13236 -2.64465,2.79423 -2.64465,2.79423 l -0.13523,3.07773 -11.38103,0.0441 z m -1.71951,14.23764 c 5.4402,-0.73019 6.9247,-0.44481 13.48147,-0.31002 0.64751,0.0133 1.33614,1.18108 0.8412,2.21602 -0.63658,1.33109 -7.56222,0.86117 -7.56222,0.86117 l 5.93374,0.15547 c 0,0 0.61363,0.699 1.03774,0.75527 3.72677,0.49439 7.53127,-3.2589 10.53382,-4.02958 1.26229,-0.32399 3.23592,1.32795 1.64426,2.6502 -2.43419,2.02217 -6.83173,4.64328 -11.18566,5.16523 -6.50397,0.77969 -15.22772,0.37808 -15.22772,0.37808 m -3.16104,-9.73937 h 2.30933 c 0.47185,0 0.85172,0.37987 0.85172,0.85172 v 9.89831 c 0,0.47185 -0.37987,0.85172 -0.85172,0.85172 h -2.30933 c -0.47184,0 -0.85171,-0.37987 -0.85171,-0.85172 v -9.89831 c 0,-0.47185 0.37987,-0.85172 0.85171,-0.85172 z" /></g><g
       id="g1694"
       transform="translate(-40.841721,-11.466374)"
       inkscape:export-filename="icon_CONTRIBUTE2.png"
       inkscape:export-xdpi="600"
       inkscape:export-ydpi="600"><path
         style="fill:none;fill-opacity:1;stroke:#2c3e50;stroke-width:1.41079;stroke-linecap:round;stroke-linejoin:round;stroke-dasharray:none;stroke-opacity:1;paint-order:stroke fill markers"
         d="m 63.852095,131.27756 h 2.128369 c 0.434875,0 0.784977,0.3646 0.784977,0.81747 v 9.50042 c 0,0.45289 -0.350102,0.81749 -0.784977,0.81749 h -2.128369 c -0.434866,0 -0.784969,-0.3646 -0.784969,-0.81749 v -9.50042 c 0,-0.45287 0.350103,-0.81747 0.784969,-0.81747 z"
         id="path1359" /><path
         style="fill:none;fill-opacity:1;stroke:#2c3e50;stroke-width:1.41079;stroke-linecap:round;stroke-linejoin:round;stroke-dasharray:none;stroke-opacity:1;paint-order:stroke fill markers"
         d="m 67.229358,133.09881 c 5.013899,-0.70083 6.382071,-0.42693 12.425045,-0.29756 0.596771,0.0128 1.231438,1.1336 0.775283,2.12694 -0.586697,1.27759 -6.969636,0.82656 -6.969636,0.82656 l 5.468765,0.14921 c 0,0 0.565545,0.6709 0.956421,0.72492 3.434736,0.47451 6.941111,-3.1279 9.708378,-3.8676 1.163375,-0.31097 2.982348,1.27457 1.515413,2.54366 -2.243444,1.94089 -6.296387,4.45663 -10.309138,4.9576 -5.994311,0.74835 -14.034457,0.36289 -14.034457,0.36289"
         id="path1357" /><path
         style="fill:url(#linearGradient1681);fill-opacity:1;stroke:#2c3e50;stroke-width:1.41079;stroke-linecap:round;stroke-linejoin:round;stroke-dasharray:none;stroke-opacity:1;paint-order:stroke fill markers"
         d="m 68.814124,119.4335 2.814372,-0.042 c 0,0 0.133748,-2.52723 2.61798,-2.54546 2.354372,-0.0173 2.417633,2.69443 2.417633,2.69443 l 2.680171,9.5e-4 -0.0046,2.7182 c 0,0 2.49143,0.6043 2.490296,2.53309 -9.21e-4,2.04664 -2.437412,2.6819 -2.437412,2.6819 l -0.124633,2.95401 -10.489199,0.0424 z"
         id="path1355" /><path
         style="fill:none;fill-opacity:1;stroke:#2c3e50;stroke-width:1.41079;stroke-linecap:round;stroke-linejoin:round;stroke-dasharray:none;stroke-opacity:1;paint-order:stroke fill markers"
         d="m 68.814124,119.4335 2.814372,-0.042 c 0,0 0.133748,-2.52723 2.61798,-2.54546 2.354372,-0.0173 2.417633,2.69443 2.417633,2.69443 l 2.680171,9.5e-4 -0.0046,2.7182 c 0,0 2.49143,0.6043 2.490296,2.53309 -9.21e-4,2.04664 -2.437412,2.6819 -2.437412,2.6819 l -0.124633,2.95401 -10.489199,0.0424 z"
         id="path1355-6" /><path
         style="fill:none;fill-opacity:1;stroke:#2c3e50;stroke-width:1.41079;stroke-linecap:round;stroke-linejoin:round;stroke-dasharray:none;stroke-opacity:1;paint-order:stroke fill markers"
         d="m 71.632013,122.3956 -0.03124,2.61801"
         id="path1353" /><path
         style="fill:none;fill-opacity:1;stroke:#2c3e50;stroke-width:1.41079;stroke-linecap:round;stroke-linejoin:round;stroke-dasharray:none;stroke-opacity:1;paint-order:stroke fill markers"
         d="M 71.593763,127.36016 Z"
         id="path1351" /><path
         style="fill:none;fill-opacity:1;stroke:#2c3e50;stroke-width:1.41079;stroke-linecap:round;stroke-linejoin:round;stroke-dasharray:none;stroke-opacity:1;paint-order:stroke fill markers"
         d="m 71.720784,127.34044 v 0.32124"
         id="path4280-7" /><path
         style="fill:none;fill-opacity:1;stroke:#2c3e50;stroke-width:1.38376;stroke-linecap:round;stroke-linejoin:round;stroke-dasharray:none;stroke-opacity:1;paint-order:stroke fill markers"
         d="m 116.65281,118.15397 h -2.13038 c -0.43529,0 -0.78572,0.35044 -0.78572,0.78572 v 9.13129 c 0,0.43529 0.35043,0.78572 0.78572,0.78572 h 2.13038 c 0.43528,0 0.78571,-0.35043 0.78571,-0.78572 v -9.13129 c 0,-0.43528 -0.35043,-0.78572 -0.78571,-0.78572 z"
         id="path483" /><path
         style="fill:none;fill-opacity:1;stroke:#2c3e50;stroke-width:1.38376;stroke-linecap:round;stroke-linejoin:round;stroke-dasharray:none;stroke-opacity:1;paint-order:stroke fill markers"
         d="m 113.27236,119.90446 c -5.01864,-0.6736 -6.38811,-0.41034 -12.43679,-0.28599 -0.59734,0.0123 -1.232608,1.08955 -0.77602,2.0443 0.58725,1.22794 6.97622,0.79443 6.97622,0.79443 l -5.47393,0.14343 c 0,0 -0.56608,0.64483 -0.95733,0.69674 -3.43798,0.45608 -6.947669,-3.00637 -9.717551,-3.71733 -1.164476,-0.29888 -2.985169,1.22505 -1.516847,2.44484 2.245565,1.86547 6.302339,4.28347 10.318883,4.76498 5.999975,0.71927 14.047725,0.34878 14.047725,0.34878"
         id="path481" /><path
         style="fill:url(#linearGradient1494);fill-opacity:1;stroke:#2c3e50;stroke-width:1.38376;stroke-linecap:round;stroke-linejoin:round;stroke-dasharray:none;stroke-opacity:1;paint-order:stroke fill markers"
         d="m 111.68609,106.7701 -2.81703,-0.0404 c 0,0 -0.13388,-2.42903 -2.62045,-2.44656 -2.3566,-0.0166 -2.41992,2.58974 -2.41992,2.58974 l -2.68271,9.2e-4 0.005,2.61258 c 0,0 -2.493782,0.58082 -2.492648,2.43466 9.23e-4,1.96713 2.439718,2.57771 2.439718,2.57771 l 0.12475,2.83924 10.49911,0.0407 c 0,0 0.0604,-1.15318 -0.0115,-2.56909 -0.43839,-0.92582 -2.15474,-1.01685 -2.15156,-2.67245 0.003,-1.54855 2.12726,-2.21089 2.12726,-2.21089 z"
         id="path479"
         sodipodi:nodetypes="ccsccccccccscc" /><path
         style="fill:none;fill-opacity:1;stroke:#2c3e50;stroke-width:1.38376;stroke-linecap:round;stroke-linejoin:round;stroke-dasharray:none;stroke-opacity:1;paint-order:stroke fill markers"
         d="m 111.68609,106.7701 -2.81703,-0.0404 c 0,0 -0.13388,-2.42903 -2.62045,-2.44656 -2.3566,-0.0166 -2.41992,2.58974 -2.41992,2.58974 l -2.68271,9.2e-4 0.005,2.61258 c 0,0 -2.493782,0.58082 -2.492648,2.43466 9.23e-4,1.96713 2.439718,2.57771 2.439718,2.57771 l 0.12475,2.83924 10.49911,0.0407 c 0,0 0.0604,-1.15318 -0.0115,-2.56909 -0.43839,-0.92582 -2.15474,-1.01685 -2.15156,-2.67245 0.003,-1.54855 2.12726,-2.21089 2.12726,-2.21089 z"
         id="path479-2"
         sodipodi:nodetypes="ccsccccccccscc" /></g></g></svg>
